<svg width="15" height="18" viewBox="0 0 15 18" fill="none" xmlns="http://www.w3.org/2000/svg">
<path d="M7.5 9.17197C8.01562 9.17197 8.45719 8.9922 8.82469 8.63266C9.19156 8.27373 9.375 7.84204 9.375 7.33758C9.375 6.83312 9.19156 6.40112 8.82469 6.04158C8.45719 5.68265 8.01562 5.50318 7.5 5.50318C6.98437 5.50318 6.54313 5.68265 6.17625 6.04158C5.80875 6.40112 5.625 6.83312 5.625 7.33758C5.625 7.84204 5.80875 8.27373 6.17625 8.63266C6.54313 8.9922 6.98437 9.17197 7.5 9.17197ZM7.5 18C7.375 18 7.25 17.9771 7.125 17.9312C7 17.8853 6.89062 17.8242 6.79687 17.7478C4.51562 15.7758 2.8125 13.9454 1.6875 12.2565C0.5625 10.567 0 8.98854 0 7.52102C0 5.22803 0.754063 3.40127 2.26219 2.04076C3.76969 0.680255 5.51562 0 7.5 0C9.48437 0 11.2303 0.680255 12.7378 2.04076C14.2459 3.40127 15 5.22803 15 7.52102C15 8.98854 14.4375 10.567 13.3125 12.2565C12.1875 13.9454 10.4844 15.7758 8.20312 17.7478C8.10937 17.8242 8 17.8853 7.875 17.9312C7.75 17.9771 7.625 18 7.5 18Z" fill="#000D1B"/>
</svg>
