<svg width="30" height="30" viewBox="0 0 30 30" fill="none" xmlns="http://www.w3.org/2000/svg">
<g clip-path="url(#clip0_44_57)">
<path d="M15.6562 0.025C17.2937 0 18.9187 0.0125 20.5437 0C20.6437 1.9125 21.3312 3.8625 22.7312 5.2125C24.1312 6.6 26.1062 7.2375 28.0312 7.45V12.4875C26.2312 12.425 24.4187 12.05 22.7812 11.275C22.0687 10.95 21.4062 10.5375 20.7562 10.1125C20.7437 13.7625 20.7687 17.4125 20.7312 21.05C20.6312 22.8 20.0562 24.5375 19.0437 25.975C17.4062 28.375 14.5687 29.9375 11.6562 29.9875C9.86875 30.0875 8.08125 29.6 6.55625 28.7C4.03125 27.2125 2.25625 24.4875 1.99375 21.5625C1.96875 20.9375 1.95625 20.3125 1.98125 19.7C2.20625 17.325 3.38125 15.05 5.20625 13.5C7.28125 11.7 10.1812 10.8375 12.8937 11.35C12.9187 13.2 12.8437 15.05 12.8437 16.9C11.6062 16.5 10.1562 16.6125 9.06875 17.3625C8.28125 17.875 7.68125 18.6625 7.36875 19.55C7.10625 20.1875 7.18125 20.8875 7.19375 21.5625C7.49375 23.6125 9.46875 25.3375 11.5687 25.15C12.9687 25.1375 14.3062 24.325 15.0312 23.1375C15.2687 22.725 15.5312 22.3 15.5437 21.8125C15.6687 19.575 15.6187 17.35 15.6312 15.1125C15.6437 10.075 15.6187 5.05 15.6562 0.025Z" fill="#FF9900"/>
</g>
<defs>
<clipPath id="clip0_44_57">
<rect width="30" height="30" fill="white"/>
</clipPath>
</defs>
</svg>
