<svg width="30" height="30" viewBox="0 0 30 30" fill="none" xmlns="http://www.w3.org/2000/svg">
<g clip-path="url(#clip0_44_59)">
<path d="M30 15.0918C30 6.75555 23.2838 -0.00195312 15 -0.00195312C6.7125 -7.81247e-05 -0.00374985 6.75555 -0.00374985 15.0937C-0.00374985 22.6256 5.4825 28.8693 12.6525 30.0018V19.4549H8.84625V15.0937H12.6562V11.7655C12.6562 7.98367 14.8969 5.89492 18.3225 5.89492C19.965 5.89492 21.6806 6.1893 21.6806 6.1893V9.9018H19.7887C17.9269 9.9018 17.3456 11.0662 17.3456 12.2605V15.0918H21.5044L20.8406 19.4531H17.3438V29.9999C24.5138 28.8674 30 22.6237 30 15.0918Z" fill="#FF9900"/>
</g>
<defs>
<clipPath id="clip0_44_59">
<rect width="30" height="30" fill="white"/>
</clipPath>
</defs>
</svg>
